<mxfile host="app.diagrams.net" modified="2023-03-30T04:20:36.184Z" agent="Mozilla/5.0 (Windows NT 10.0; Win64; x64) AppleWebKit/537.36 (KHTML, like Gecko) Chrome/111.0.0.0 Safari/537.36" etag="C1teCFi7VIi7EjA74j6r" version="21.1.2" type="github">
  <diagram name="Page-1" id="c4acf3e9-155e-7222-9cf6-157b1a14988f">
    <mxGraphModel dx="2600" dy="818" grid="1" gridSize="10" guides="1" tooltips="1" connect="1" arrows="1" fold="1" page="1" pageScale="1" pageWidth="850" pageHeight="1100" background="none" math="0" shadow="0">
      <root>
        <mxCell id="0" />
        <mxCell id="1" parent="0" />
        <mxCell id="ekasf5D9ayAVJrav_qYW-2" value="Products" style="rounded=0;whiteSpace=wrap;html=1;" vertex="1" parent="1">
          <mxGeometry x="460" y="660" width="85" height="60" as="geometry" />
        </mxCell>
        <mxCell id="ekasf5D9ayAVJrav_qYW-3" value="Orders" style="rounded=0;whiteSpace=wrap;html=1;" vertex="1" parent="1">
          <mxGeometry x="395" y="340" width="120" height="60" as="geometry" />
        </mxCell>
        <mxCell id="ekasf5D9ayAVJrav_qYW-5" value="OrderDetails" style="rounded=0;whiteSpace=wrap;html=1;" vertex="1" parent="1">
          <mxGeometry x="65" y="340" width="120" height="60" as="geometry" />
        </mxCell>
        <mxCell id="ekasf5D9ayAVJrav_qYW-6" value="Roles" style="rounded=0;whiteSpace=wrap;html=1;" vertex="1" parent="1">
          <mxGeometry x="560" y="975" width="130" height="60" as="geometry" />
        </mxCell>
        <mxCell id="ekasf5D9ayAVJrav_qYW-7" value="Size" style="rounded=0;whiteSpace=wrap;html=1;" vertex="1" parent="1">
          <mxGeometry x="575" y="410" width="70" height="60" as="geometry" />
        </mxCell>
        <mxCell id="ekasf5D9ayAVJrav_qYW-8" value="Brands" style="rounded=0;whiteSpace=wrap;html=1;" vertex="1" parent="1">
          <mxGeometry x="770" y="515" width="80" height="60" as="geometry" />
        </mxCell>
        <mxCell id="ekasf5D9ayAVJrav_qYW-11" value="manage" style="rhombus;whiteSpace=wrap;html=1;" vertex="1" parent="1">
          <mxGeometry x="220" y="560" width="80" height="80" as="geometry" />
        </mxCell>
        <mxCell id="ekasf5D9ayAVJrav_qYW-12" value="" style="endArrow=none;html=1;rounded=0;entryX=0;entryY=0.75;entryDx=0;entryDy=0;" edge="1" parent="1" source="ekasf5D9ayAVJrav_qYW-11" target="ekasf5D9ayAVJrav_qYW-2">
          <mxGeometry width="50" height="50" relative="1" as="geometry">
            <mxPoint x="405" y="540" as="sourcePoint" />
            <mxPoint x="430" y="600" as="targetPoint" />
          </mxGeometry>
        </mxCell>
        <mxCell id="ekasf5D9ayAVJrav_qYW-16" value="have" style="rhombus;whiteSpace=wrap;html=1;" vertex="1" parent="1">
          <mxGeometry x="365" y="970" width="70" height="70" as="geometry" />
        </mxCell>
        <mxCell id="ekasf5D9ayAVJrav_qYW-18" value="" style="endArrow=none;html=1;rounded=0;entryX=0;entryY=0.5;entryDx=0;entryDy=0;" edge="1" parent="1" source="ekasf5D9ayAVJrav_qYW-16" target="ekasf5D9ayAVJrav_qYW-6">
          <mxGeometry width="50" height="50" relative="1" as="geometry">
            <mxPoint x="405" y="540" as="sourcePoint" />
            <mxPoint x="425" y="580" as="targetPoint" />
          </mxGeometry>
        </mxCell>
        <mxCell id="ekasf5D9ayAVJrav_qYW-19" value="" style="endArrow=none;html=1;rounded=0;entryX=0;entryY=0.5;entryDx=0;entryDy=0;" edge="1" parent="1" target="ekasf5D9ayAVJrav_qYW-16">
          <mxGeometry width="50" height="50" relative="1" as="geometry">
            <mxPoint x="240" y="910" as="sourcePoint" />
            <mxPoint x="335" y="640" as="targetPoint" />
          </mxGeometry>
        </mxCell>
        <mxCell id="ekasf5D9ayAVJrav_qYW-20" value="" style="endArrow=none;html=1;rounded=0;entryX=0.593;entryY=1.05;entryDx=0;entryDy=0;entryPerimeter=0;" edge="1" parent="1" source="ekasf5D9ayAVJrav_qYW-11" target="ekasf5D9ayAVJrav_qYW-3">
          <mxGeometry width="50" height="50" relative="1" as="geometry">
            <mxPoint x="405" y="540" as="sourcePoint" />
            <mxPoint x="455" y="490" as="targetPoint" />
          </mxGeometry>
        </mxCell>
        <mxCell id="ekasf5D9ayAVJrav_qYW-21" value="have" style="rhombus;whiteSpace=wrap;html=1;" vertex="1" parent="1">
          <mxGeometry x="575" y="520" width="70" height="60" as="geometry" />
        </mxCell>
        <mxCell id="ekasf5D9ayAVJrav_qYW-24" value="" style="endArrow=none;html=1;rounded=0;entryX=0;entryY=0.5;entryDx=0;entryDy=0;exitX=1;exitY=0.5;exitDx=0;exitDy=0;" edge="1" parent="1" source="ekasf5D9ayAVJrav_qYW-2" target="ekasf5D9ayAVJrav_qYW-21">
          <mxGeometry width="50" height="50" relative="1" as="geometry">
            <mxPoint x="535" y="550" as="sourcePoint" />
            <mxPoint x="575" y="510" as="targetPoint" />
          </mxGeometry>
        </mxCell>
        <mxCell id="ekasf5D9ayAVJrav_qYW-27" value="" style="endArrow=none;html=1;rounded=0;exitX=0.5;exitY=0;exitDx=0;exitDy=0;entryX=0.5;entryY=1;entryDx=0;entryDy=0;" edge="1" parent="1" source="ekasf5D9ayAVJrav_qYW-21" target="ekasf5D9ayAVJrav_qYW-7">
          <mxGeometry width="50" height="50" relative="1" as="geometry">
            <mxPoint x="405" y="540" as="sourcePoint" />
            <mxPoint x="605" y="480" as="targetPoint" />
          </mxGeometry>
        </mxCell>
        <mxCell id="ekasf5D9ayAVJrav_qYW-29" value="" style="endArrow=none;html=1;rounded=0;exitX=1;exitY=0.5;exitDx=0;exitDy=0;entryX=0;entryY=0.5;entryDx=0;entryDy=0;" edge="1" parent="1" source="ekasf5D9ayAVJrav_qYW-21" target="ekasf5D9ayAVJrav_qYW-8">
          <mxGeometry width="50" height="50" relative="1" as="geometry">
            <mxPoint x="495" y="630" as="sourcePoint" />
            <mxPoint x="675" y="580" as="targetPoint" />
          </mxGeometry>
        </mxCell>
        <mxCell id="ekasf5D9ayAVJrav_qYW-30" value="have" style="rhombus;whiteSpace=wrap;html=1;" vertex="1" parent="1">
          <mxGeometry x="245" y="340" width="70" height="60" as="geometry" />
        </mxCell>
        <mxCell id="ekasf5D9ayAVJrav_qYW-31" value="" style="endArrow=none;html=1;rounded=0;entryX=0;entryY=0.5;entryDx=0;entryDy=0;exitX=1;exitY=0.5;exitDx=0;exitDy=0;" edge="1" parent="1" source="ekasf5D9ayAVJrav_qYW-30" target="ekasf5D9ayAVJrav_qYW-3">
          <mxGeometry width="50" height="50" relative="1" as="geometry">
            <mxPoint x="335" y="400" as="sourcePoint" />
            <mxPoint x="455" y="490" as="targetPoint" />
          </mxGeometry>
        </mxCell>
        <mxCell id="ekasf5D9ayAVJrav_qYW-32" value="" style="endArrow=none;html=1;rounded=0;exitX=0;exitY=0.5;exitDx=0;exitDy=0;entryX=1;entryY=0.5;entryDx=0;entryDy=0;" edge="1" parent="1" source="ekasf5D9ayAVJrav_qYW-30" target="ekasf5D9ayAVJrav_qYW-5">
          <mxGeometry width="50" height="50" relative="1" as="geometry">
            <mxPoint x="275" y="450" as="sourcePoint" />
            <mxPoint x="225" y="440" as="targetPoint" />
          </mxGeometry>
        </mxCell>
        <mxCell id="ekasf5D9ayAVJrav_qYW-33" value="Size" style="ellipse;whiteSpace=wrap;html=1;" vertex="1" parent="1">
          <mxGeometry x="660" y="390" width="120" height="40" as="geometry" />
        </mxCell>
        <mxCell id="ekasf5D9ayAVJrav_qYW-34" value="SizeID" style="ellipse;whiteSpace=wrap;html=1;" vertex="1" parent="1">
          <mxGeometry x="640" y="340" width="110" height="40" as="geometry" />
        </mxCell>
        <mxCell id="ekasf5D9ayAVJrav_qYW-36" value="" style="endArrow=none;html=1;rounded=0;entryX=0.64;entryY=-0.03;entryDx=0;entryDy=0;entryPerimeter=0;exitX=0.073;exitY=0.745;exitDx=0;exitDy=0;exitPerimeter=0;" edge="1" parent="1" source="ekasf5D9ayAVJrav_qYW-34" target="ekasf5D9ayAVJrav_qYW-7">
          <mxGeometry width="50" height="50" relative="1" as="geometry">
            <mxPoint x="565" y="380" as="sourcePoint" />
            <mxPoint x="455" y="490" as="targetPoint" />
          </mxGeometry>
        </mxCell>
        <mxCell id="ekasf5D9ayAVJrav_qYW-37" value="" style="endArrow=none;html=1;rounded=0;entryX=0;entryY=0.5;entryDx=0;entryDy=0;exitX=1;exitY=0.5;exitDx=0;exitDy=0;" edge="1" parent="1" source="ekasf5D9ayAVJrav_qYW-7" target="ekasf5D9ayAVJrav_qYW-33">
          <mxGeometry width="50" height="50" relative="1" as="geometry">
            <mxPoint x="645" y="490" as="sourcePoint" />
            <mxPoint x="455" y="490" as="targetPoint" />
          </mxGeometry>
        </mxCell>
        <mxCell id="ekasf5D9ayAVJrav_qYW-38" value="UserID" style="ellipse;whiteSpace=wrap;html=1;strokeWidth=1;" vertex="1" parent="1">
          <mxGeometry x="260" y="220" width="105" height="50" as="geometry" />
        </mxCell>
        <mxCell id="ekasf5D9ayAVJrav_qYW-39" value="Address" style="ellipse;whiteSpace=wrap;html=1;strokeWidth=1;" vertex="1" parent="1">
          <mxGeometry x="365" y="60" width="110" height="40" as="geometry" />
        </mxCell>
        <mxCell id="ekasf5D9ayAVJrav_qYW-40" value="Fullname" style="ellipse;whiteSpace=wrap;html=1;strokeWidth=1;" vertex="1" parent="1">
          <mxGeometry x="520" y="180" width="110" height="40" as="geometry" />
        </mxCell>
        <mxCell id="ekasf5D9ayAVJrav_qYW-41" value="Email" style="ellipse;whiteSpace=wrap;html=1;strokeWidth=1;" vertex="1" parent="1">
          <mxGeometry x="645" y="170" width="110" height="40" as="geometry" />
        </mxCell>
        <mxCell id="ekasf5D9ayAVJrav_qYW-42" value="DateCreate" style="ellipse;whiteSpace=wrap;html=1;strokeWidth=1;" vertex="1" parent="1">
          <mxGeometry x="260" y="160" width="110" height="40" as="geometry" />
        </mxCell>
        <mxCell id="ekasf5D9ayAVJrav_qYW-43" value="&lt;b&gt;OrderID&lt;/b&gt;" style="ellipse;whiteSpace=wrap;html=1;strokeWidth=1;movable=1;resizable=1;rotatable=1;deletable=1;editable=1;locked=0;connectable=1;" vertex="1" parent="1">
          <mxGeometry x="260" y="285" width="110" height="40" as="geometry" />
        </mxCell>
        <mxCell id="ekasf5D9ayAVJrav_qYW-44" value="Note" style="ellipse;whiteSpace=wrap;html=1;strokeWidth=1;" vertex="1" parent="1">
          <mxGeometry x="515" y="130" width="110" height="40" as="geometry" />
        </mxCell>
        <mxCell id="ekasf5D9ayAVJrav_qYW-47" value="ExpDiscount" style="ellipse;whiteSpace=wrap;html=1;strokeWidth=1;" vertex="1" parent="1">
          <mxGeometry x="575" y="285" width="110" height="40" as="geometry" />
        </mxCell>
        <mxCell id="ekasf5D9ayAVJrav_qYW-48" value="Total" style="ellipse;whiteSpace=wrap;html=1;strokeWidth=1;" vertex="1" parent="1">
          <mxGeometry x="315" y="110" width="110" height="40" as="geometry" />
        </mxCell>
        <mxCell id="ekasf5D9ayAVJrav_qYW-49" value="Status" style="ellipse;whiteSpace=wrap;html=1;strokeWidth=1;" vertex="1" parent="1">
          <mxGeometry x="465" y="80" width="110" height="40" as="geometry" />
        </mxCell>
        <mxCell id="ekasf5D9ayAVJrav_qYW-50" value="PhoneNumber" style="ellipse;whiteSpace=wrap;html=1;strokeWidth=1;" vertex="1" parent="1">
          <mxGeometry x="625" y="240" width="110" height="40" as="geometry" />
        </mxCell>
        <mxCell id="ekasf5D9ayAVJrav_qYW-51" value="Voucher" style="ellipse;whiteSpace=wrap;html=1;" vertex="1" parent="1">
          <mxGeometry x="515" y="325" width="110" height="40" as="geometry" />
        </mxCell>
        <mxCell id="ekasf5D9ayAVJrav_qYW-56" value="" style="endArrow=none;html=1;rounded=0;exitX=1;exitY=0.5;exitDx=0;exitDy=0;entryX=0.25;entryY=0;entryDx=0;entryDy=0;strokeWidth=1;" edge="1" parent="1" source="ekasf5D9ayAVJrav_qYW-43" target="ekasf5D9ayAVJrav_qYW-3">
          <mxGeometry width="50" height="50" relative="1" as="geometry">
            <mxPoint x="400" y="300" as="sourcePoint" />
            <mxPoint x="450" y="250" as="targetPoint" />
          </mxGeometry>
        </mxCell>
        <mxCell id="ekasf5D9ayAVJrav_qYW-57" value="" style="endArrow=none;html=1;rounded=0;exitX=0.318;exitY=-0.063;exitDx=0;exitDy=0;exitPerimeter=0;entryX=0.994;entryY=0.772;entryDx=0;entryDy=0;entryPerimeter=0;strokeWidth=1;" edge="1" parent="1" source="ekasf5D9ayAVJrav_qYW-3" target="ekasf5D9ayAVJrav_qYW-38">
          <mxGeometry width="50" height="50" relative="1" as="geometry">
            <mxPoint x="400" y="300" as="sourcePoint" />
            <mxPoint x="370" y="250" as="targetPoint" />
          </mxGeometry>
        </mxCell>
        <mxCell id="ekasf5D9ayAVJrav_qYW-58" value="" style="endArrow=none;html=1;rounded=0;entryX=1;entryY=0.5;entryDx=0;entryDy=0;exitX=0.5;exitY=0;exitDx=0;exitDy=0;strokeWidth=1;" edge="1" parent="1" source="ekasf5D9ayAVJrav_qYW-3" target="ekasf5D9ayAVJrav_qYW-42">
          <mxGeometry width="50" height="50" relative="1" as="geometry">
            <mxPoint x="400" y="300" as="sourcePoint" />
            <mxPoint x="450" y="250" as="targetPoint" />
          </mxGeometry>
        </mxCell>
        <mxCell id="ekasf5D9ayAVJrav_qYW-62" value="" style="endArrow=none;html=1;rounded=0;entryX=0.625;entryY=1.032;entryDx=0;entryDy=0;entryPerimeter=0;exitX=0.5;exitY=0;exitDx=0;exitDy=0;strokeWidth=1;" edge="1" parent="1" source="ekasf5D9ayAVJrav_qYW-3" target="ekasf5D9ayAVJrav_qYW-39">
          <mxGeometry width="50" height="50" relative="1" as="geometry">
            <mxPoint x="480" y="220" as="sourcePoint" />
            <mxPoint x="530" y="170" as="targetPoint" />
          </mxGeometry>
        </mxCell>
        <mxCell id="ekasf5D9ayAVJrav_qYW-63" value="" style="endArrow=none;html=1;rounded=0;entryX=0.26;entryY=0.961;entryDx=0;entryDy=0;entryPerimeter=0;strokeWidth=1;" edge="1" parent="1" target="ekasf5D9ayAVJrav_qYW-40">
          <mxGeometry width="50" height="50" relative="1" as="geometry">
            <mxPoint x="450" y="340" as="sourcePoint" />
            <mxPoint x="530" y="170" as="targetPoint" />
          </mxGeometry>
        </mxCell>
        <mxCell id="ekasf5D9ayAVJrav_qYW-64" value="" style="endArrow=none;html=1;rounded=0;entryX=0.611;entryY=0.979;entryDx=0;entryDy=0;entryPerimeter=0;strokeWidth=1;" edge="1" parent="1" target="ekasf5D9ayAVJrav_qYW-48">
          <mxGeometry width="50" height="50" relative="1" as="geometry">
            <mxPoint x="450" y="340" as="sourcePoint" />
            <mxPoint x="530" y="170" as="targetPoint" />
          </mxGeometry>
        </mxCell>
        <mxCell id="ekasf5D9ayAVJrav_qYW-65" value="" style="endArrow=none;html=1;rounded=0;strokeWidth=1;" edge="1" parent="1" target="ekasf5D9ayAVJrav_qYW-49">
          <mxGeometry width="50" height="50" relative="1" as="geometry">
            <mxPoint x="450" y="330" as="sourcePoint" />
            <mxPoint x="530" y="170" as="targetPoint" />
          </mxGeometry>
        </mxCell>
        <mxCell id="ekasf5D9ayAVJrav_qYW-66" value="" style="endArrow=none;html=1;rounded=0;exitX=0.5;exitY=0;exitDx=0;exitDy=0;entryX=0;entryY=0.5;entryDx=0;entryDy=0;strokeWidth=1;" edge="1" parent="1" source="ekasf5D9ayAVJrav_qYW-3" target="ekasf5D9ayAVJrav_qYW-51">
          <mxGeometry width="50" height="50" relative="1" as="geometry">
            <mxPoint x="480" y="220" as="sourcePoint" />
            <mxPoint x="510" y="300" as="targetPoint" />
          </mxGeometry>
        </mxCell>
        <mxCell id="ekasf5D9ayAVJrav_qYW-67" value="" style="endArrow=none;html=1;rounded=0;entryX=0;entryY=0.5;entryDx=0;entryDy=0;strokeWidth=1;" edge="1" parent="1" target="ekasf5D9ayAVJrav_qYW-50">
          <mxGeometry width="50" height="50" relative="1" as="geometry">
            <mxPoint x="450" y="340" as="sourcePoint" />
            <mxPoint x="530" y="380" as="targetPoint" />
          </mxGeometry>
        </mxCell>
        <mxCell id="ekasf5D9ayAVJrav_qYW-68" value="" style="endArrow=none;html=1;rounded=0;entryX=0.033;entryY=0.711;entryDx=0;entryDy=0;entryPerimeter=0;strokeWidth=1;" edge="1" parent="1" target="ekasf5D9ayAVJrav_qYW-44">
          <mxGeometry width="50" height="50" relative="1" as="geometry">
            <mxPoint x="450" y="340" as="sourcePoint" />
            <mxPoint x="530" y="270" as="targetPoint" />
          </mxGeometry>
        </mxCell>
        <mxCell id="ekasf5D9ayAVJrav_qYW-69" value="" style="endArrow=none;html=1;rounded=0;entryX=0;entryY=0.5;entryDx=0;entryDy=0;strokeWidth=1;" edge="1" parent="1" target="ekasf5D9ayAVJrav_qYW-47">
          <mxGeometry width="50" height="50" relative="1" as="geometry">
            <mxPoint x="460" y="340" as="sourcePoint" />
            <mxPoint x="530" y="270" as="targetPoint" />
          </mxGeometry>
        </mxCell>
        <mxCell id="ekasf5D9ayAVJrav_qYW-71" value="" style="endArrow=none;html=1;rounded=0;entryX=0;entryY=1;entryDx=0;entryDy=0;strokeWidth=1;" edge="1" parent="1" target="ekasf5D9ayAVJrav_qYW-41">
          <mxGeometry width="50" height="50" relative="1" as="geometry">
            <mxPoint x="450" y="340" as="sourcePoint" />
            <mxPoint x="530" y="270" as="targetPoint" />
          </mxGeometry>
        </mxCell>
        <mxCell id="ekasf5D9ayAVJrav_qYW-98" value="ProductName" style="ellipse;whiteSpace=wrap;html=1;" vertex="1" parent="1">
          <mxGeometry x="390" y="550" width="110" height="40" as="geometry" />
        </mxCell>
        <mxCell id="ekasf5D9ayAVJrav_qYW-99" value="ImgUser" style="ellipse;whiteSpace=wrap;html=1;" vertex="1" parent="1">
          <mxGeometry x="545" y="800" width="110" height="40" as="geometry" />
        </mxCell>
        <mxCell id="ekasf5D9ayAVJrav_qYW-102" value="ProductID" style="ellipse;whiteSpace=wrap;html=1;" vertex="1" parent="1">
          <mxGeometry x="460" y="510" width="110" height="40" as="geometry" />
        </mxCell>
        <mxCell id="ekasf5D9ayAVJrav_qYW-104" value="Fullname" style="ellipse;whiteSpace=wrap;html=1;" vertex="1" parent="1">
          <mxGeometry x="340" y="600" width="110" height="40" as="geometry" />
        </mxCell>
        <mxCell id="ekasf5D9ayAVJrav_qYW-105" value="Gender" style="ellipse;whiteSpace=wrap;html=1;" vertex="1" parent="1">
          <mxGeometry x="645" y="670" width="110" height="40" as="geometry" />
        </mxCell>
        <mxCell id="ekasf5D9ayAVJrav_qYW-109" value="Address" style="ellipse;whiteSpace=wrap;html=1;" vertex="1" parent="1">
          <mxGeometry x="390" y="805" width="110" height="40" as="geometry" />
        </mxCell>
        <mxCell id="ekasf5D9ayAVJrav_qYW-110" value="PhoneNumber" style="ellipse;whiteSpace=wrap;html=1;" vertex="1" parent="1">
          <mxGeometry x="500" y="840" width="110" height="40" as="geometry" />
        </mxCell>
        <mxCell id="ekasf5D9ayAVJrav_qYW-112" value="Email" style="ellipse;whiteSpace=wrap;html=1;" vertex="1" parent="1">
          <mxGeometry x="730" y="710" width="110" height="40" as="geometry" />
        </mxCell>
        <mxCell id="ekasf5D9ayAVJrav_qYW-113" value="" style="endArrow=none;html=1;rounded=0;exitX=0.75;exitY=0;exitDx=0;exitDy=0;" edge="1" parent="1" source="ekasf5D9ayAVJrav_qYW-2" target="ekasf5D9ayAVJrav_qYW-102">
          <mxGeometry width="50" height="50" relative="1" as="geometry">
            <mxPoint x="480" y="740" as="sourcePoint" />
            <mxPoint x="530" y="690" as="targetPoint" />
          </mxGeometry>
        </mxCell>
        <mxCell id="ekasf5D9ayAVJrav_qYW-114" value="" style="endArrow=none;html=1;rounded=0;" edge="1" parent="1" source="ekasf5D9ayAVJrav_qYW-2" target="ekasf5D9ayAVJrav_qYW-98">
          <mxGeometry width="50" height="50" relative="1" as="geometry">
            <mxPoint x="480" y="740" as="sourcePoint" />
            <mxPoint x="530" y="690" as="targetPoint" />
          </mxGeometry>
        </mxCell>
        <mxCell id="ekasf5D9ayAVJrav_qYW-115" value="" style="endArrow=none;html=1;rounded=0;entryX=1;entryY=1;entryDx=0;entryDy=0;" edge="1" parent="1" source="ekasf5D9ayAVJrav_qYW-2" target="ekasf5D9ayAVJrav_qYW-104">
          <mxGeometry width="50" height="50" relative="1" as="geometry">
            <mxPoint x="480" y="740" as="sourcePoint" />
            <mxPoint x="530" y="690" as="targetPoint" />
          </mxGeometry>
        </mxCell>
        <mxCell id="ekasf5D9ayAVJrav_qYW-122" value="" style="endArrow=none;html=1;rounded=0;entryX=0;entryY=0.5;entryDx=0;entryDy=0;exitX=1;exitY=0.75;exitDx=0;exitDy=0;" edge="1" parent="1" source="ekasf5D9ayAVJrav_qYW-2" target="ekasf5D9ayAVJrav_qYW-105">
          <mxGeometry width="50" height="50" relative="1" as="geometry">
            <mxPoint x="480" y="740" as="sourcePoint" />
            <mxPoint x="530" y="690" as="targetPoint" />
          </mxGeometry>
        </mxCell>
        <mxCell id="ekasf5D9ayAVJrav_qYW-123" value="" style="endArrow=none;html=1;rounded=0;entryX=1;entryY=1;entryDx=0;entryDy=0;" edge="1" parent="1" source="ekasf5D9ayAVJrav_qYW-99" target="ekasf5D9ayAVJrav_qYW-2">
          <mxGeometry width="50" height="50" relative="1" as="geometry">
            <mxPoint x="480" y="740" as="sourcePoint" />
            <mxPoint x="530" y="690" as="targetPoint" />
          </mxGeometry>
        </mxCell>
        <mxCell id="ekasf5D9ayAVJrav_qYW-124" value="" style="endArrow=none;html=1;rounded=0;exitX=0.326;exitY=0.034;exitDx=0;exitDy=0;exitPerimeter=0;entryX=0.75;entryY=1;entryDx=0;entryDy=0;" edge="1" parent="1" source="ekasf5D9ayAVJrav_qYW-110" target="ekasf5D9ayAVJrav_qYW-2">
          <mxGeometry width="50" height="50" relative="1" as="geometry">
            <mxPoint x="480" y="740" as="sourcePoint" />
            <mxPoint x="540" y="740" as="targetPoint" />
          </mxGeometry>
        </mxCell>
        <mxCell id="ekasf5D9ayAVJrav_qYW-125" value="" style="endArrow=none;html=1;rounded=0;entryX=0.362;entryY=-0.103;entryDx=0;entryDy=0;entryPerimeter=0;" edge="1" parent="1" target="ekasf5D9ayAVJrav_qYW-109">
          <mxGeometry width="50" height="50" relative="1" as="geometry">
            <mxPoint x="500" y="720" as="sourcePoint" />
            <mxPoint x="530" y="690" as="targetPoint" />
          </mxGeometry>
        </mxCell>
        <mxCell id="ekasf5D9ayAVJrav_qYW-126" value="" style="endArrow=none;html=1;rounded=0;exitX=0;exitY=0.5;exitDx=0;exitDy=0;" edge="1" parent="1" source="ekasf5D9ayAVJrav_qYW-112">
          <mxGeometry width="50" height="50" relative="1" as="geometry">
            <mxPoint x="480" y="740" as="sourcePoint" />
            <mxPoint x="550" y="720" as="targetPoint" />
          </mxGeometry>
        </mxCell>
        <mxCell id="ekasf5D9ayAVJrav_qYW-130" value="BrandName" style="ellipse;whiteSpace=wrap;html=1;" vertex="1" parent="1">
          <mxGeometry x="755" y="620" width="110" height="40" as="geometry" />
        </mxCell>
        <mxCell id="ekasf5D9ayAVJrav_qYW-131" value="BrandID" style="ellipse;whiteSpace=wrap;html=1;" vertex="1" parent="1">
          <mxGeometry x="899" y="520" width="120" height="50" as="geometry" />
        </mxCell>
        <mxCell id="ekasf5D9ayAVJrav_qYW-132" value="" style="endArrow=none;html=1;rounded=0;entryX=0.5;entryY=1;entryDx=0;entryDy=0;" edge="1" parent="1" source="ekasf5D9ayAVJrav_qYW-130" target="ekasf5D9ayAVJrav_qYW-8">
          <mxGeometry width="50" height="50" relative="1" as="geometry">
            <mxPoint x="470" y="630" as="sourcePoint" />
            <mxPoint x="520" y="580" as="targetPoint" />
          </mxGeometry>
        </mxCell>
        <mxCell id="ekasf5D9ayAVJrav_qYW-134" value="Products" style="rounded=0;whiteSpace=wrap;html=1;" vertex="1" parent="1">
          <mxGeometry x="175" y="850" width="85" height="60" as="geometry" />
        </mxCell>
        <mxCell id="ekasf5D9ayAVJrav_qYW-139" value="" style="ellipse;whiteSpace=wrap;html=1;" vertex="1" parent="1">
          <mxGeometry x="15.5" y="910" width="105" height="50" as="geometry" />
        </mxCell>
        <mxCell id="ekasf5D9ayAVJrav_qYW-140" value="" style="ellipse;whiteSpace=wrap;html=1;" vertex="1" parent="1">
          <mxGeometry x="105.5" y="740" width="110" height="40" as="geometry" />
        </mxCell>
        <mxCell id="ekasf5D9ayAVJrav_qYW-141" value="" style="ellipse;whiteSpace=wrap;html=1;" vertex="1" parent="1">
          <mxGeometry x="122.75" y="670" width="110" height="40" as="geometry" />
        </mxCell>
        <mxCell id="ekasf5D9ayAVJrav_qYW-142" value="" style="ellipse;whiteSpace=wrap;html=1;" vertex="1" parent="1">
          <mxGeometry x="25.5" y="840" width="110" height="40" as="geometry" />
        </mxCell>
        <mxCell id="ekasf5D9ayAVJrav_qYW-143" value="" style="ellipse;whiteSpace=wrap;html=1;" vertex="1" parent="1">
          <mxGeometry x="25.5" y="970" width="110" height="40" as="geometry" />
        </mxCell>
        <mxCell id="ekasf5D9ayAVJrav_qYW-144" value="" style="ellipse;whiteSpace=wrap;html=1;" vertex="1" parent="1">
          <mxGeometry x="45.5" y="1020" width="110" height="40" as="geometry" />
        </mxCell>
        <mxCell id="ekasf5D9ayAVJrav_qYW-145" value="" style="ellipse;whiteSpace=wrap;html=1;" vertex="1" parent="1">
          <mxGeometry x="55.5" y="790" width="110" height="40" as="geometry" />
        </mxCell>
        <mxCell id="ekasf5D9ayAVJrav_qYW-146" value="" style="ellipse;whiteSpace=wrap;html=1;" vertex="1" parent="1">
          <mxGeometry x="285" y="830" width="110" height="40" as="geometry" />
        </mxCell>
        <mxCell id="ekasf5D9ayAVJrav_qYW-147" value="" style="ellipse;whiteSpace=wrap;html=1;" vertex="1" parent="1">
          <mxGeometry x="105.5" y="1070" width="144.5" height="30" as="geometry" />
        </mxCell>
        <mxCell id="ekasf5D9ayAVJrav_qYW-148" value="" style="ellipse;whiteSpace=wrap;html=1;" vertex="1" parent="1">
          <mxGeometry x="190" y="1020" width="110" height="40" as="geometry" />
        </mxCell>
        <mxCell id="ekasf5D9ayAVJrav_qYW-149" value="" style="ellipse;whiteSpace=wrap;html=1;" vertex="1" parent="1">
          <mxGeometry x="270" y="725" width="110" height="40" as="geometry" />
        </mxCell>
        <mxCell id="ekasf5D9ayAVJrav_qYW-150" value="" style="ellipse;whiteSpace=wrap;html=1;" vertex="1" parent="1">
          <mxGeometry x="330" y="890" width="110" height="40" as="geometry" />
        </mxCell>
        <mxCell id="ekasf5D9ayAVJrav_qYW-151" value="" style="endArrow=none;html=1;rounded=0;exitX=0.75;exitY=0;exitDx=0;exitDy=0;" edge="1" source="ekasf5D9ayAVJrav_qYW-134" parent="1" target="ekasf5D9ayAVJrav_qYW-11">
          <mxGeometry width="50" height="50" relative="1" as="geometry">
            <mxPoint x="195.5" y="930" as="sourcePoint" />
            <mxPoint x="231.5" y="740" as="targetPoint" />
          </mxGeometry>
        </mxCell>
        <mxCell id="ekasf5D9ayAVJrav_qYW-152" value="" style="endArrow=none;html=1;rounded=0;" edge="1" source="ekasf5D9ayAVJrav_qYW-134" target="ekasf5D9ayAVJrav_qYW-140" parent="1">
          <mxGeometry width="50" height="50" relative="1" as="geometry">
            <mxPoint x="195.5" y="930" as="sourcePoint" />
            <mxPoint x="245.5" y="880" as="targetPoint" />
          </mxGeometry>
        </mxCell>
        <mxCell id="ekasf5D9ayAVJrav_qYW-153" value="" style="endArrow=none;html=1;rounded=0;entryX=1;entryY=1;entryDx=0;entryDy=0;" edge="1" source="ekasf5D9ayAVJrav_qYW-134" target="ekasf5D9ayAVJrav_qYW-145" parent="1">
          <mxGeometry width="50" height="50" relative="1" as="geometry">
            <mxPoint x="195.5" y="930" as="sourcePoint" />
            <mxPoint x="245.5" y="880" as="targetPoint" />
          </mxGeometry>
        </mxCell>
        <mxCell id="ekasf5D9ayAVJrav_qYW-154" value="" style="endArrow=none;html=1;rounded=0;entryX=1;entryY=1;entryDx=0;entryDy=0;exitX=0;exitY=0.5;exitDx=0;exitDy=0;" edge="1" source="ekasf5D9ayAVJrav_qYW-134" target="ekasf5D9ayAVJrav_qYW-142" parent="1">
          <mxGeometry width="50" height="50" relative="1" as="geometry">
            <mxPoint x="195.5" y="930" as="sourcePoint" />
            <mxPoint x="245.5" y="880" as="targetPoint" />
          </mxGeometry>
        </mxCell>
        <mxCell id="ekasf5D9ayAVJrav_qYW-155" value="" style="endArrow=none;html=1;rounded=0;entryX=1;entryY=0.5;entryDx=0;entryDy=0;exitX=0;exitY=1;exitDx=0;exitDy=0;" edge="1" source="ekasf5D9ayAVJrav_qYW-134" target="ekasf5D9ayAVJrav_qYW-139" parent="1">
          <mxGeometry width="50" height="50" relative="1" as="geometry">
            <mxPoint x="195.5" y="930" as="sourcePoint" />
            <mxPoint x="245.5" y="880" as="targetPoint" />
          </mxGeometry>
        </mxCell>
        <mxCell id="ekasf5D9ayAVJrav_qYW-156" value="" style="endArrow=none;html=1;rounded=0;exitX=1;exitY=0;exitDx=0;exitDy=0;entryX=0.5;entryY=1;entryDx=0;entryDy=0;" edge="1" source="ekasf5D9ayAVJrav_qYW-143" target="ekasf5D9ayAVJrav_qYW-134" parent="1">
          <mxGeometry width="50" height="50" relative="1" as="geometry">
            <mxPoint x="195.5" y="930" as="sourcePoint" />
            <mxPoint x="245.5" y="880" as="targetPoint" />
          </mxGeometry>
        </mxCell>
        <mxCell id="ekasf5D9ayAVJrav_qYW-158" value="" style="endArrow=none;html=1;rounded=0;entryX=0.5;entryY=1;entryDx=0;entryDy=0;exitX=0.729;exitY=-0.053;exitDx=0;exitDy=0;exitPerimeter=0;" edge="1" source="ekasf5D9ayAVJrav_qYW-144" target="ekasf5D9ayAVJrav_qYW-134" parent="1">
          <mxGeometry width="50" height="50" relative="1" as="geometry">
            <mxPoint x="195.5" y="930" as="sourcePoint" />
            <mxPoint x="245.5" y="880" as="targetPoint" />
          </mxGeometry>
        </mxCell>
        <mxCell id="ekasf5D9ayAVJrav_qYW-159" value="" style="endArrow=none;html=1;rounded=0;entryX=0;entryY=0.5;entryDx=0;entryDy=0;exitX=1;exitY=0.75;exitDx=0;exitDy=0;" edge="1" source="ekasf5D9ayAVJrav_qYW-134" target="ekasf5D9ayAVJrav_qYW-146" parent="1">
          <mxGeometry width="50" height="50" relative="1" as="geometry">
            <mxPoint x="195.5" y="930" as="sourcePoint" />
            <mxPoint x="245.5" y="880" as="targetPoint" />
          </mxGeometry>
        </mxCell>
        <mxCell id="ekasf5D9ayAVJrav_qYW-160" value="" style="endArrow=none;html=1;rounded=0;entryX=0.618;entryY=-0.042;entryDx=0;entryDy=0;entryPerimeter=0;" edge="1" source="ekasf5D9ayAVJrav_qYW-141" target="ekasf5D9ayAVJrav_qYW-134" parent="1">
          <mxGeometry width="50" height="50" relative="1" as="geometry">
            <mxPoint x="195.5" y="930" as="sourcePoint" />
            <mxPoint x="230" y="840" as="targetPoint" />
          </mxGeometry>
        </mxCell>
        <mxCell id="ekasf5D9ayAVJrav_qYW-161" value="" style="endArrow=none;html=1;rounded=0;exitX=0.326;exitY=0.034;exitDx=0;exitDy=0;exitPerimeter=0;entryX=0.75;entryY=1;entryDx=0;entryDy=0;" edge="1" source="ekasf5D9ayAVJrav_qYW-148" target="ekasf5D9ayAVJrav_qYW-134" parent="1">
          <mxGeometry width="50" height="50" relative="1" as="geometry">
            <mxPoint x="195.5" y="930" as="sourcePoint" />
            <mxPoint x="255.5" y="930" as="targetPoint" />
          </mxGeometry>
        </mxCell>
        <mxCell id="ekasf5D9ayAVJrav_qYW-162" value="" style="endArrow=none;html=1;rounded=0;entryX=0.362;entryY=-0.103;entryDx=0;entryDy=0;entryPerimeter=0;" edge="1" target="ekasf5D9ayAVJrav_qYW-147" parent="1">
          <mxGeometry width="50" height="50" relative="1" as="geometry">
            <mxPoint x="215.5" y="910" as="sourcePoint" />
            <mxPoint x="245.5" y="880" as="targetPoint" />
          </mxGeometry>
        </mxCell>
        <mxCell id="ekasf5D9ayAVJrav_qYW-163" value="" style="endArrow=none;html=1;rounded=0;exitX=0;exitY=0.5;exitDx=0;exitDy=0;entryX=1;entryY=1;entryDx=0;entryDy=0;" edge="1" source="ekasf5D9ayAVJrav_qYW-150" parent="1" target="ekasf5D9ayAVJrav_qYW-134">
          <mxGeometry width="50" height="50" relative="1" as="geometry">
            <mxPoint x="195.5" y="930" as="sourcePoint" />
            <mxPoint x="260" y="900" as="targetPoint" />
          </mxGeometry>
        </mxCell>
        <mxCell id="ekasf5D9ayAVJrav_qYW-166" value="" style="endArrow=none;html=1;rounded=0;entryX=0.5;entryY=1;entryDx=0;entryDy=0;exitX=1;exitY=0;exitDx=0;exitDy=0;" edge="1" parent="1" source="ekasf5D9ayAVJrav_qYW-134" target="ekasf5D9ayAVJrav_qYW-149">
          <mxGeometry width="50" height="50" relative="1" as="geometry">
            <mxPoint x="470" y="880" as="sourcePoint" />
            <mxPoint x="520" y="830" as="targetPoint" />
          </mxGeometry>
        </mxCell>
        <mxCell id="ekasf5D9ayAVJrav_qYW-170" value="" style="ellipse;whiteSpace=wrap;html=1;" vertex="1" parent="1">
          <mxGeometry x="-94.5" y="280" width="110" height="40" as="geometry" />
        </mxCell>
        <mxCell id="ekasf5D9ayAVJrav_qYW-171" value="" style="ellipse;whiteSpace=wrap;html=1;" vertex="1" parent="1">
          <mxGeometry x="-84.5" y="210" width="110" height="40" as="geometry" />
        </mxCell>
        <mxCell id="ekasf5D9ayAVJrav_qYW-172" value="" style="ellipse;whiteSpace=wrap;html=1;" vertex="1" parent="1">
          <mxGeometry x="-100" y="400" width="110" height="40" as="geometry" />
        </mxCell>
        <mxCell id="ekasf5D9ayAVJrav_qYW-173" value="" style="ellipse;whiteSpace=wrap;html=1;" vertex="1" parent="1">
          <mxGeometry x="-100" y="340" width="110" height="40" as="geometry" />
        </mxCell>
        <mxCell id="ekasf5D9ayAVJrav_qYW-174" value="" style="ellipse;whiteSpace=wrap;html=1;" vertex="1" parent="1">
          <mxGeometry x="-12.75" y="470" width="144.5" height="50" as="geometry" />
        </mxCell>
        <mxCell id="ekasf5D9ayAVJrav_qYW-175" value="" style="endArrow=none;html=1;rounded=0;" edge="1" target="ekasf5D9ayAVJrav_qYW-170" parent="1">
          <mxGeometry width="50" height="50" relative="1" as="geometry">
            <mxPoint x="68.5" y="340" as="sourcePoint" />
            <mxPoint x="110" y="370" as="targetPoint" />
          </mxGeometry>
        </mxCell>
        <mxCell id="ekasf5D9ayAVJrav_qYW-176" value="" style="endArrow=none;html=1;rounded=0;entryX=1;entryY=1;entryDx=0;entryDy=0;exitX=0;exitY=0.5;exitDx=0;exitDy=0;" edge="1" target="ekasf5D9ayAVJrav_qYW-173" parent="1" source="ekasf5D9ayAVJrav_qYW-5">
          <mxGeometry width="50" height="50" relative="1" as="geometry">
            <mxPoint x="60" y="380" as="sourcePoint" />
            <mxPoint x="110" y="370" as="targetPoint" />
          </mxGeometry>
        </mxCell>
        <mxCell id="ekasf5D9ayAVJrav_qYW-180" value="" style="endArrow=none;html=1;rounded=0;entryX=0.5;entryY=1;entryDx=0;entryDy=0;exitX=1;exitY=0;exitDx=0;exitDy=0;" edge="1" source="ekasf5D9ayAVJrav_qYW-172" parent="1">
          <mxGeometry width="50" height="50" relative="1" as="geometry">
            <mxPoint x="60" y="420" as="sourcePoint" />
            <mxPoint x="82.5" y="400" as="targetPoint" />
          </mxGeometry>
        </mxCell>
        <mxCell id="ekasf5D9ayAVJrav_qYW-181" value="" style="endArrow=none;html=1;rounded=0;entryX=0.618;entryY=-0.042;entryDx=0;entryDy=0;entryPerimeter=0;" edge="1" source="ekasf5D9ayAVJrav_qYW-171" parent="1">
          <mxGeometry width="50" height="50" relative="1" as="geometry">
            <mxPoint x="60" y="420" as="sourcePoint" />
            <mxPoint x="92.5" y="337" as="targetPoint" />
          </mxGeometry>
        </mxCell>
        <mxCell id="ekasf5D9ayAVJrav_qYW-183" value="" style="endArrow=none;html=1;rounded=0;entryX=0.5;entryY=0;entryDx=0;entryDy=0;" edge="1" target="ekasf5D9ayAVJrav_qYW-174" parent="1">
          <mxGeometry width="50" height="50" relative="1" as="geometry">
            <mxPoint x="80" y="400" as="sourcePoint" />
            <mxPoint x="110" y="370" as="targetPoint" />
          </mxGeometry>
        </mxCell>
        <mxCell id="ekasf5D9ayAVJrav_qYW-184" style="edgeStyle=orthogonalEdgeStyle;rounded=0;orthogonalLoop=1;jettySize=auto;html=1;exitX=0.5;exitY=1;exitDx=0;exitDy=0;" edge="1" parent="1" source="ekasf5D9ayAVJrav_qYW-172" target="ekasf5D9ayAVJrav_qYW-172">
          <mxGeometry relative="1" as="geometry" />
        </mxCell>
        <mxCell id="ekasf5D9ayAVJrav_qYW-187" value="" style="ellipse;whiteSpace=wrap;html=1;" vertex="1" parent="1">
          <mxGeometry x="45.5" y="220" width="144.5" height="30" as="geometry" />
        </mxCell>
        <mxCell id="ekasf5D9ayAVJrav_qYW-188" value="" style="endArrow=none;html=1;rounded=0;entryX=0.446;entryY=0.983;entryDx=0;entryDy=0;entryPerimeter=0;" edge="1" parent="1" source="ekasf5D9ayAVJrav_qYW-5" target="ekasf5D9ayAVJrav_qYW-187">
          <mxGeometry width="50" height="50" relative="1" as="geometry">
            <mxPoint x="470" y="510" as="sourcePoint" />
            <mxPoint x="520" y="460" as="targetPoint" />
          </mxGeometry>
        </mxCell>
        <mxCell id="ekasf5D9ayAVJrav_qYW-189" value="" style="ellipse;whiteSpace=wrap;html=1;" vertex="1" parent="1">
          <mxGeometry x="670" y="860" width="120" height="50" as="geometry" />
        </mxCell>
        <mxCell id="ekasf5D9ayAVJrav_qYW-190" value="" style="ellipse;whiteSpace=wrap;html=1;" vertex="1" parent="1">
          <mxGeometry x="740" y="975" width="110" height="40" as="geometry" />
        </mxCell>
        <mxCell id="ekasf5D9ayAVJrav_qYW-192" value="Roles" style="rounded=0;whiteSpace=wrap;html=1;" vertex="1" parent="1">
          <mxGeometry x="340" y="1100" width="110" height="60" as="geometry" />
        </mxCell>
        <mxCell id="ekasf5D9ayAVJrav_qYW-193" value="" style="ellipse;whiteSpace=wrap;html=1;" vertex="1" parent="1">
          <mxGeometry x="490" y="1120" width="110" height="40" as="geometry" />
        </mxCell>
        <mxCell id="ekasf5D9ayAVJrav_qYW-194" value="" style="ellipse;whiteSpace=wrap;html=1;" vertex="1" parent="1">
          <mxGeometry x="340" y="1190" width="110" height="40" as="geometry" />
        </mxCell>
        <mxCell id="ekasf5D9ayAVJrav_qYW-197" value="" style="endArrow=none;html=1;rounded=0;entryX=0;entryY=0.5;entryDx=0;entryDy=0;" edge="1" parent="1" source="ekasf5D9ayAVJrav_qYW-8" target="ekasf5D9ayAVJrav_qYW-131">
          <mxGeometry width="50" height="50" relative="1" as="geometry">
            <mxPoint x="930" y="380" as="sourcePoint" />
            <mxPoint x="1055" y="370" as="targetPoint" />
          </mxGeometry>
        </mxCell>
        <mxCell id="ekasf5D9ayAVJrav_qYW-199" value="" style="endArrow=none;html=1;rounded=0;entryX=1;entryY=0.5;entryDx=0;entryDy=0;exitX=0.051;exitY=0.318;exitDx=0;exitDy=0;exitPerimeter=0;" edge="1" parent="1" source="ekasf5D9ayAVJrav_qYW-193" target="ekasf5D9ayAVJrav_qYW-192">
          <mxGeometry width="50" height="50" relative="1" as="geometry">
            <mxPoint x="530" y="1090" as="sourcePoint" />
            <mxPoint x="580" y="1040" as="targetPoint" />
          </mxGeometry>
        </mxCell>
        <mxCell id="ekasf5D9ayAVJrav_qYW-200" value="" style="endArrow=none;html=1;rounded=0;entryX=0.5;entryY=1;entryDx=0;entryDy=0;exitX=0.5;exitY=0;exitDx=0;exitDy=0;" edge="1" parent="1" source="ekasf5D9ayAVJrav_qYW-194" target="ekasf5D9ayAVJrav_qYW-192">
          <mxGeometry width="50" height="50" relative="1" as="geometry">
            <mxPoint x="530" y="1090" as="sourcePoint" />
            <mxPoint x="580" y="1040" as="targetPoint" />
          </mxGeometry>
        </mxCell>
        <mxCell id="ekasf5D9ayAVJrav_qYW-201" value="" style="endArrow=none;html=1;rounded=0;entryX=0.5;entryY=1;entryDx=0;entryDy=0;exitX=0.5;exitY=0;exitDx=0;exitDy=0;" edge="1" parent="1" source="ekasf5D9ayAVJrav_qYW-192" target="ekasf5D9ayAVJrav_qYW-16">
          <mxGeometry width="50" height="50" relative="1" as="geometry">
            <mxPoint x="530" y="1090" as="sourcePoint" />
            <mxPoint x="580" y="1040" as="targetPoint" />
          </mxGeometry>
        </mxCell>
        <mxCell id="ekasf5D9ayAVJrav_qYW-202" value="" style="endArrow=none;html=1;rounded=0;exitX=0.443;exitY=0.004;exitDx=0;exitDy=0;exitPerimeter=0;" edge="1" parent="1" source="ekasf5D9ayAVJrav_qYW-6" target="ekasf5D9ayAVJrav_qYW-189">
          <mxGeometry width="50" height="50" relative="1" as="geometry">
            <mxPoint x="530" y="990" as="sourcePoint" />
            <mxPoint x="580" y="940" as="targetPoint" />
          </mxGeometry>
        </mxCell>
        <mxCell id="ekasf5D9ayAVJrav_qYW-203" value="" style="endArrow=none;html=1;rounded=0;" edge="1" parent="1" target="ekasf5D9ayAVJrav_qYW-190">
          <mxGeometry width="50" height="50" relative="1" as="geometry">
            <mxPoint x="690" y="995" as="sourcePoint" />
            <mxPoint x="580" y="940" as="targetPoint" />
          </mxGeometry>
        </mxCell>
        <mxCell id="ekasf5D9ayAVJrav_qYW-204" value="VoucherID" style="ellipse;whiteSpace=wrap;html=1;strokeWidth=1;" vertex="1" parent="1">
          <mxGeometry x="280" y="420" width="110" height="40" as="geometry" />
        </mxCell>
        <mxCell id="ekasf5D9ayAVJrav_qYW-205" value="" style="endArrow=none;html=1;rounded=0;entryX=0;entryY=0.75;entryDx=0;entryDy=0;exitX=0.5;exitY=0;exitDx=0;exitDy=0;" edge="1" parent="1" source="ekasf5D9ayAVJrav_qYW-204" target="ekasf5D9ayAVJrav_qYW-3">
          <mxGeometry width="50" height="50" relative="1" as="geometry">
            <mxPoint x="320" y="320" as="sourcePoint" />
            <mxPoint x="370" y="270" as="targetPoint" />
          </mxGeometry>
        </mxCell>
        <mxCell id="ekasf5D9ayAVJrav_qYW-206" value="PaymentAmount" style="ellipse;whiteSpace=wrap;html=1;" vertex="1" parent="1">
          <mxGeometry x="435" y="430" width="120" height="30" as="geometry" />
        </mxCell>
        <mxCell id="ekasf5D9ayAVJrav_qYW-207" value="" style="endArrow=none;html=1;rounded=0;entryX=0.75;entryY=1;entryDx=0;entryDy=0;" edge="1" parent="1" source="ekasf5D9ayAVJrav_qYW-206" target="ekasf5D9ayAVJrav_qYW-3">
          <mxGeometry width="50" height="50" relative="1" as="geometry">
            <mxPoint x="320" y="320" as="sourcePoint" />
            <mxPoint x="370" y="270" as="targetPoint" />
          </mxGeometry>
        </mxCell>
        <mxCell id="ekasf5D9ayAVJrav_qYW-211" value="" style="edgeStyle=orthogonalEdgeStyle;rounded=0;orthogonalLoop=1;jettySize=auto;html=1;" edge="1" parent="1" source="ekasf5D9ayAVJrav_qYW-208" target="ekasf5D9ayAVJrav_qYW-210">
          <mxGeometry relative="1" as="geometry" />
        </mxCell>
        <mxCell id="ekasf5D9ayAVJrav_qYW-208" value="Password" style="ellipse;whiteSpace=wrap;html=1;" vertex="1" parent="1">
          <mxGeometry x="630" y="620" width="110" height="40" as="geometry" />
        </mxCell>
        <mxCell id="ekasf5D9ayAVJrav_qYW-209" value="" style="endArrow=none;html=1;rounded=0;exitX=1;exitY=0.5;exitDx=0;exitDy=0;" edge="1" parent="1" source="ekasf5D9ayAVJrav_qYW-2" target="ekasf5D9ayAVJrav_qYW-208">
          <mxGeometry width="50" height="50" relative="1" as="geometry">
            <mxPoint x="550" y="630" as="sourcePoint" />
            <mxPoint x="600" y="580" as="targetPoint" />
          </mxGeometry>
        </mxCell>
        <mxCell id="ekasf5D9ayAVJrav_qYW-210" value="ConfirmPassword" style="ellipse;whiteSpace=wrap;html=1;" vertex="1" parent="1">
          <mxGeometry x="580" y="580" width="110" height="40" as="geometry" />
        </mxCell>
        <mxCell id="ekasf5D9ayAVJrav_qYW-212" value="" style="endArrow=none;html=1;rounded=0;exitX=1;exitY=0.5;exitDx=0;exitDy=0;" edge="1" parent="1" source="ekasf5D9ayAVJrav_qYW-2" target="ekasf5D9ayAVJrav_qYW-210">
          <mxGeometry width="50" height="50" relative="1" as="geometry">
            <mxPoint x="550" y="770" as="sourcePoint" />
            <mxPoint x="600" y="720" as="targetPoint" />
          </mxGeometry>
        </mxCell>
        <mxCell id="ekasf5D9ayAVJrav_qYW-213" value="Lock" style="ellipse;whiteSpace=wrap;html=1;" vertex="1" parent="1">
          <mxGeometry x="340" y="760" width="110" height="40" as="geometry" />
        </mxCell>
        <mxCell id="ekasf5D9ayAVJrav_qYW-214" value="" style="endArrow=none;html=1;rounded=0;entryX=0;entryY=1;entryDx=0;entryDy=0;exitX=0.771;exitY=0.118;exitDx=0;exitDy=0;exitPerimeter=0;" edge="1" parent="1" source="ekasf5D9ayAVJrav_qYW-213" target="ekasf5D9ayAVJrav_qYW-2">
          <mxGeometry width="50" height="50" relative="1" as="geometry">
            <mxPoint x="550" y="770" as="sourcePoint" />
            <mxPoint x="600" y="720" as="targetPoint" />
          </mxGeometry>
        </mxCell>
        <mxCell id="ekasf5D9ayAVJrav_qYW-215" value="RoleID" style="ellipse;whiteSpace=wrap;html=1;" vertex="1" parent="1">
          <mxGeometry x="655" y="765" width="120" height="45" as="geometry" />
        </mxCell>
        <mxCell id="ekasf5D9ayAVJrav_qYW-218" value="" style="endArrow=none;html=1;rounded=0;" edge="1" parent="1" source="ekasf5D9ayAVJrav_qYW-215">
          <mxGeometry width="50" height="50" relative="1" as="geometry">
            <mxPoint x="550" y="770" as="sourcePoint" />
            <mxPoint x="550" y="720" as="targetPoint" />
          </mxGeometry>
        </mxCell>
        <mxCell id="ekasf5D9ayAVJrav_qYW-219" value="DateCreated" style="ellipse;whiteSpace=wrap;html=1;" vertex="1" parent="1">
          <mxGeometry x="315" y="680" width="110" height="40" as="geometry" />
        </mxCell>
        <mxCell id="ekasf5D9ayAVJrav_qYW-220" value="" style="endArrow=none;html=1;rounded=0;exitX=1;exitY=1;exitDx=0;exitDy=0;" edge="1" parent="1" source="ekasf5D9ayAVJrav_qYW-219">
          <mxGeometry width="50" height="50" relative="1" as="geometry">
            <mxPoint x="550" y="770" as="sourcePoint" />
            <mxPoint x="460" y="710" as="targetPoint" />
          </mxGeometry>
        </mxCell>
      </root>
    </mxGraphModel>
  </diagram>
</mxfile>
